<?xml version="1.0" standalone="no"?>
<!DOCTYPE svg PUBLIC "-//W3C//DTD SVG 20010904//EN"
 "http://www.w3.org/TR/2001/REC-SVG-20010904/DTD/svg10.dtd">
<svg version="1.0" xmlns="http://www.w3.org/2000/svg"
 width="145.000000pt" height="145.000000pt" viewBox="0 0 128.000000 125.000000"
 preserveAspectRatio="xMidYMid meet">

<g transform="translate(0.000000,125.000000) scale(0.100000,-0.100000)"
fill="#000000" stroke="none">
<path d="M559 1212 c-57 -51 -48 -156 16 -198 17 -11 25 -26 25 -45 l0 -28
-179 -3 c-164 -3 -182 -5 -208 -24 -41 -31 -73 -82 -73 -119 0 -31 -2 -33 -47
-38 -35 -4 -53 -12 -70 -32 -21 -24 -23 -36 -23 -145 0 -109 2 -121 23 -145
17 -20 35 -28 70 -32 41 -5 47 -8 47 -30 0 -65 61 -137 126 -149 l35 -6 -7
-104 c-7 -102 -6 -104 15 -104 13 0 69 41 143 104 l122 105 232 3 c218 3 234
4 261 24 41 31 73 82 73 119 0 31 2 33 47 38 35 4 53 12 70 32 21 24 23 36 23
145 0 109 -2 121 -23 145 -17 20 -35 28 -70 32 -45 5 -47 7 -47 38 0 37 -32
88 -73 119 -26 19 -46 21 -205 26 -174 5 -177 5 -180 27 -2 16 9 34 37 60 64
62 67 119 6 180 -29 29 -40 33 -84 33 -41 0 -56 -5 -82 -28z" fill="#000000"/>
<path d="M559 1212 c-57 -51 -48 -156 16 -198 17 -11 25 -26 25 -45 l0 -28
-179 -3 c-164 -3 -182 -5 -208 -24 -41 -31 -73 -82 -73 -119 0 -31 -2 -33 -47
-38 -35 -4 -53 -12 -70 -32 -21 -24 -23 -36 -23 -145 0 -109 2 -121 23 -145
17 -20 35 -28 70 -32 41 -5 47 -8 47 -30 0 -65 61 -137 126 -149 l35 -6 -7
-104 c-7 -102 -6 -104 15 -104 13 0 69 41 143 104 l122 105 232 3 c218 3 234
4 261 24 41 31 73 82 73 119 0 31 2 33 47 38 35 4 53 12 70 32 21 24 23 36 23
145 0 109 -2 121 -23 145 -17 20 -35 28 -70 32 -45 5 -47 7 -47 38 0 37 -32
88 -73 119 -26 19 -46 21 -205 26 -174 5 -177 5 -180 27 -2 16 9 34 37 60 64
62 67 119 6 180 -29 29 -40 33 -84 33 -41 0 -56 -5 -82 -28z" fill="#000000"/>
<path d="M355 726 c-48 -48 -40 -122 16 -151 41 -22 74 -18 108 11 42 35 44
98 5 138 -36 35 -95 36 -129 2z" fill="#000000"/>
<path d="M796 724 c-39 -40 -37 -103 5 -138 96 -81 213 51 124 140 -34 34 -93
33 -129 -2z" fill="#000000"/>
<path d="M484 455 c-15 -38 66 -79 156 -79 93 0 192 53 155 84 -12 10 -24 7
-67 -14 -65 -33 -112 -33 -172 -1 -54 29 -65 30 -72 10z" fill="#000000"/>
</g>
</svg>
