<?xml version="1.0" standalone="no"?>
<!DOCTYPE svg PUBLIC "-//W3C//DTD SVG 20010904//EN"
 "http://www.w3.org/TR/2001/REC-SVG-20010904/DTD/svg10.dtd">
<svg version="1.0" xmlns="http://www.w3.org/2000/svg"
 width="90.000000pt" height="90.000000pt" viewBox="0 0 90.000000 90.000000"
 preserveAspectRatio="xMidYMid meet">

<g transform="translate(0.000000,90.000000) scale(0.100000,-0.100000)"
fill="#000000" stroke="none">
<path d="M410 880 c-24 -24 -25 -49 -5 -76 8 -10 15 -33 15 -51 l0 -31 -100
-4 c-97 -3 -100 -4 -132 -36 l-33 -32 -3 -250 -3 -250 301 0 301 0 -3 250 -3
250 -33 32 c-32 32 -35 33 -132 36 l-100 4 0 31 c0 18 7 41 15 51 8 11 15 28
15 38 0 24 -35 58 -60 58 -11 0 -29 -9 -40 -20z m-40 -330 c11 -11 20 -29 20
-40 0 -26 -34 -60 -60 -60 -11 0 -29 9 -40 20 -11 11 -20 29 -20 40 0 11 9 29
20 40 11 11 29 20 40 20 11 0 29 -9 40 -20z m240 0 c11 -11 20 -29 20 -40 0
-26 -34 -60 -60 -60 -11 0 -29 9 -40 20 -11 11 -20 29 -20 40 0 11 9 29 20 40
11 11 29 20 40 20 11 0 29 -9 40 -20z m0 -240 c13 -13 20 -33 20 -60 l0 -40
-180 0 -180 0 0 40 c0 27 7 47 20 60 18 18 33 20 160 20 127 0 142 -2 160 -20z"/>
<path d="M35 528 c-3 -8 -4 -61 -3 -119 3 -104 3 -104 28 -104 l25 0 0 115 c0
112 -1 115 -23 118 -12 2 -24 -3 -27 -10z"/>
<path d="M815 528 c-3 -8 -4 -61 -3 -119 3 -104 3 -104 28 -104 l25 0 0 115
c0 112 -1 115 -23 118 -12 2 -24 -3 -27 -10z"/>
</g>
</svg>
