<?xml version="1.0" standalone="no"?>
<!DOCTYPE svg PUBLIC "-//W3C//DTD SVG 20010904//EN"
 "http://www.w3.org/TR/2001/REC-SVG-20010904/DTD/svg10.dtd">
<svg version="1.0" xmlns="http://www.w3.org/2000/svg"
 width="124.000000pt" height="124.000000pt" viewBox="0 0 124.000000 124.000000"
 preserveAspectRatio="xMidYMid meet">

<g transform="translate(0.000000,124.000000) scale(0.100000,-0.100000)"
fill="#000000" stroke="none">
<path d="M310 1184 c-42 -18 -76 -49 -98 -89 -15 -27 -17 -87 -20 -522 -3
-521 -2 -539 41 -531 12 3 104 62 205 132 l182 128 163 -113 c89 -62 173 -121
186 -131 31 -24 58 -23 71 2 8 14 10 174 8 513 -3 534 -2 520 -60 574 -53 49
-78 53 -370 53 -221 -1 -280 -4 -308 -16z m626 -96 l34 -38 0 -450 0 -451 -77
55 c-43 30 -122 85 -175 122 l-98 68 -97 -68 c-54 -37 -133 -92 -175 -122
l-78 -55 0 450 0 450 30 35 c17 19 41 37 53 39 12 3 140 4 285 3 l264 -1 34
-37z"/>
</g>
</svg>
